<?xml version="1.0" encoding="UTF-8" standalone="no"?>
<svg
   xmlns:dc="http://purl.org/dc/elements/1.1/"
   xmlns:cc="http://creativecommons.org/ns#"
   xmlns:rdf="http://www.w3.org/1999/02/22-rdf-syntax-ns#"
   xmlns:svg="http://www.w3.org/2000/svg"
   xmlns="http://www.w3.org/2000/svg"
   xmlns:sodipodi="http://sodipodi.sourceforge.net/DTD/sodipodi-0.dtd"
   xmlns:inkscape="http://www.inkscape.org/namespaces/inkscape"
   width="932.34"
   height="929.325"
   viewBox="0 0 932.34 929.325"
   version="1.1"
   id="svg864"
   sodipodi:docname="alarm.svg"
   inkscape:version="0.92.4 (5da689c313, 2019-01-14)">
  <metadata
     id="metadata4598">
    <rdf:RDF>
      <cc:Work
         rdf:about="">
        <dc:format>image/svg+xml</dc:format>
        <dc:type
           rdf:resource="http://purl.org/dc/dcmitype/StillImage" />
      </cc:Work>
    </rdf:RDF>
  </metadata>
  <defs
     id="defs4596" />
  <sodipodi:namedview
     pagecolor="#ffffff"
     bordercolor="#666666"
     borderopacity="1"
     objecttolerance="10"
     gridtolerance="10"
     guidetolerance="10"
     inkscape:pageopacity="0"
     inkscape:pageshadow="2"
     inkscape:window-width="1920"
     inkscape:window-height="1017"
     id="namedview4594"
     showgrid="false"
     inkscape:zoom="0.84792725"
     inkscape:cx="466.17001"
     inkscape:cy="464.66251"
     inkscape:window-x="1358"
     inkscape:window-y="-8"
     inkscape:window-maximized="1"
     inkscape:current-layer="svg864" />
  <path
     d="M288.356 823.259l41.012 41.012-44.548 44.548a29 29 0 01-41.012 0 29 29 0 010-41.012z"
     data-name="Rectangle 3"
     id="Rectangle_3"
     fill="#b3f5ce" />
  <path
     d="M688.862 908.82a29 29 0 01-41.012 0l-44.548-44.549 41.012-41.012 44.548 44.548a29 29 0 010 41.012z"
     data-name="Rectangle 4"
     id="Rectangle_4"
     fill="#b3f5ce" />
  <path
     d="M243.808 248.765a29 29 0 0141.012 0l44.548 44.548-41.012 41.012-44.548-44.548a29 29 0 010-41.012z"
     data-name="Rectangle 3"
     id="Rectangle_3-2"
     fill="#b3f5ce" />
  <path
     d="M644.314 334.325l-41.012-41.012 44.547-44.548a29 29 0 0141.013 0 29 29 0 010 41.012z"
     data-name="Rectangle 4"
     id="Rectangle_4-2"
     fill="#b3f5ce" />
  <path
     id="Rectangle_5"
     data-name="Rectangle 5"
     d="M466.335 189.292a29 29 0 0129 29v63h-58v-63a29 29 0 0129-29z"
     fill="#b3f5ce" />
  <circle
     cx="466.335"
     cy="577.292"
     r="342"
     id="circle823"
     fill="#fff"
     stroke="none"
     stroke-width="60" />
  <circle
     cx="466.335"
     cy="577.292"
     r="312"
     id="circle825"
     fill="none"
     stroke="#db3a34"
     stroke-width="60" />
  <rect
     id="lArm"
     width="27"
     height="212"
     rx="15.5"
     x="451.335"
     y="365.292"
     fill="#212121">
    <animateTransform
       attributeName="transform"
       attributeType="XML"
       type="rotate"
       from="0 466.835 577.792"
       to="360 466.835 577.792"
       dur="6s"
       repeatCount="indefinite" />
  </rect>
  <rect
     id="sArm"
     width="31"
     height="141"
     rx="15.5"
     x="451.335"
     y="436.292"
     fill="#db3a34">
    <animateTransform
       attributeName="transform"
       attributeType="XML"
       type="rotate"
       from="0 466.835 577.792"
       to="360 466.835 577.792"
       dur="72s"
       repeatCount="indefinite" />
  </rect>
  <circle
     id="center"
     cx="466.835"
     cy="577.792"
     r="33.5"
     fill="#db3a34" />
  <circle
     id="Ellipse_1"
     data-name="Ellipse 1"
     cx="466.335"
     cy="324.292"
     r="16" />
  <circle
     id="Ellipse_2"
     data-name="Ellipse 2"
     cx="466.335"
     cy="830.292"
     r="16" />
  <circle
     id="Ellipse_3"
     data-name="Ellipse 3"
     cx="719.335"
     cy="577.292"
     r="16" />
  <circle
     id="Ellipse_4"
     data-name="Ellipse 4"
     cx="213.335"
     cy="577.292"
     r="16" />
  <path
     id="Rectangle_1"
     data-name="Rectangle 1"
     transform="rotate(25)"
     d="M680.136 63.857h7v32h-7z" />
  <path
     id="Rectangle_2"
     data-name="Rectangle 2"
     transform="rotate(62.025)"
     stroke-width="1"
     d="M745.082-397.229h6.999v31.994h-6.999z" />
  <path
     id="Rectangle_1-2"
     data-name="Rectangle 1"
     transform="rotate(155)"
     d="M-165.908-490.374h7v32h-7z" />
  <path
     id="Rectangle_2-2"
     data-name="Rectangle 2"
     transform="rotate(117.975)"
     stroke-width="1"
     d="M307.205-459.202h6.999v31.994h-6.999z" />
  <path
     id="Rectangle_1-3"
     data-name="Rectangle 1"
     transform="rotate(-155)"
     d="M-655.81-592.224h7v32h-7z" />
  <path
     id="Rectangle_2-3"
     data-name="Rectangle 2"
     transform="rotate(-117.975)"
     stroke-width="1"
     d="M-716.567-116.561h6.999v31.994h-6.999z" />
  <path
     id="Rectangle_1-4"
     data-name="Rectangle 1"
     transform="rotate(-25)"
     d="M189.328 954.317h7v32h-7z" />
  <path
     id="Rectangle_2-4"
     data-name="Rectangle 2"
     transform="rotate(-62.025)"
     stroke-width="1"
     d="M-279.131 908.109h6.999v31.994h-6.999z" />
  <g
     id="rBellSound"
     inkscape:label="#g4614">
      <animateTransform
        attributeName="transform"
        attributeType="XML"
        type="rotate"
        values="0 745 165;-18 745 165;0 745 165;18 745 165;0 745 165"
        dur=".2s"
        repeatCount="indefinite" />
    <g
       inkscape:label="#g4682"
       id="rBell">
      <path
         fill="#ffc857"
         d="M765.58 358.386L584.595 195.428a9.169 9.169 0 01-.679-12.95 124.049 124.049 0 01175.192-9.18l10.238 9.218a124.049 124.049 0 019.181 175.191 9.169 9.169 0 01-12.949.679z"
         data-name="Rectangle 6"
         id="Rectangle_6-2" />
      <path
         fill="#ffe1a4"
         d="M782.661 239.934l-80.014-72.045a8.212 8.212 0 00-10.99 12.205l80.015 72.046a8.212 8.212 0 0010.99-12.206z"
         data-name="Path 1"
         id="Path_1-2" />
    </g>
    <g
       fill="#ffc857"
       id="g4678">
      <path
         id="Path_2"
         data-name="Path 2"
         d="M823.385 101.053c40.544 36.505 37.572 94.23 24.79 85.898-12.782-8.332 7.835-40.593-32.711-77.101-40.546-36.508-66.46-9.415-77.302-21.955-10.841-12.54 44.68-23.348 85.223 13.158z" />
      <path
         id="Path_3"
         data-name="Path 3"
         d="M855.55 66.508c52.816 47.556 48.946 122.756 32.291 111.898-16.654-10.858 10.207-52.882-42.61-100.438-52.817-47.557-86.58-12.265-100.704-28.603-14.123-16.338 58.203-30.417 111.022 17.143z" />
    </g>
  </g>
  <g
     id="lBellSound"
     inkscape:label="#g4606">
      <animateTransform
          attributeName="transform"
          attributeType="XML"
          type="rotate"
          values="0 187 165;-18 187 165;0 187 165;18 187 165;0 187 165"
          dur=".2s"
          repeatCount="indefinite" />
    <g
       inkscape:label="#g4686"
       id="lBell">
      <path
         fill="#ffc857"
         d="M163.97 182.515l10.236-9.217a124.05 124.05 0 01175.193 9.181 9.169 9.169 0 01-.679 12.95L167.737 358.385a9.169 9.169 0 01-12.95-.678 124.05 124.05 0 019.182-175.193z"
         data-name="Rectangle 6"
         id="Rectangle_6" />
      <path
         fill="#ffe1a4"
         d="M150.654 239.934l80.014-72.045a8.212 8.212 0 0110.99 12.205l-80.014 72.045a8.212 8.212 0 01-10.99-12.205z"
         data-name="Path 1"
         id="Path_1" />
    </g>
    <g
       fill="#ffc857"
       id="g4674">
      <path
         id="Path_2-2"
         data-name="Path 2"
         d="M108.953 101.055c-40.544 36.505-37.573 94.23-24.79 85.898 12.781-8.332-7.835-40.593 32.71-77.101 40.547-36.508 66.463-9.417 77.305-21.957 10.841-12.54-44.68-23.348-85.225 13.16z" />
      <path
         id="Path_3-2"
         data-name="Path 3"
         d="M76.79 66.507C23.975 114.064 27.845 189.263 44.5 178.406c16.654-10.858-10.207-52.882 42.61-100.439 52.817-47.556 86.58-12.264 100.704-28.6C201.936 33.03 129.607 18.95 76.79 66.506z" />
    </g>
  </g>
</svg>
